<svg width="1295" height="337" viewBox="0 0 1295 337" fill="none" xmlns="http://www.w3.org/2000/svg">
<path d="M1293.49 194.185C1287.42 232.307 1267.93 267.008 1238.54 292.032C1209.14 317.057 1171.77 330.76 1133.17 330.672C1094.56 330.584 1057.26 316.711 1027.98 291.552C998.695 266.394 979.364 231.605 973.467 193.456" stroke="#D8D8D8" stroke-width="3" stroke-miterlimit="10" stroke-linecap="round" stroke-dasharray="10 10"/>
<path d="M977.732 163.526C977.732 165.229 977.227 166.893 976.281 168.309C975.335 169.725 973.99 170.829 972.417 171.48C970.843 172.132 969.112 172.302 967.442 171.97C965.771 171.638 964.237 170.818 963.033 169.614C961.828 168.41 961.008 166.876 960.676 165.205C960.344 163.535 960.514 161.804 961.166 160.231C961.818 158.658 962.922 157.313 964.338 156.367C965.754 155.421 967.418 154.916 969.121 154.916C971.405 154.916 973.595 155.823 975.21 157.438C976.825 159.052 977.732 161.242 977.732 163.526Z" fill="#02060C"/>
<path d="M965.521 130.473C957.696 93.443 937.147 60.3225 907.444 36.8632C877.74 13.4039 840.757 1.08746 802.918 2.05272C765.079 3.01797 728.772 17.2039 700.304 42.1472C671.835 67.0904 653.002 101.216 647.075 138.597" stroke="#D8D8D8" stroke-width="3" stroke-miterlimit="10" stroke-linecap="round" stroke-dasharray="10 10"/>
<path d="M653.862 163.526C653.862 165.229 653.357 166.893 652.411 168.309C651.465 169.725 650.12 170.829 648.546 171.48C646.973 172.132 645.242 172.302 643.571 171.97C641.901 171.638 640.367 170.818 639.163 169.614C637.958 168.41 637.138 166.876 636.806 165.205C636.474 163.535 636.644 161.804 637.296 160.231C637.948 158.658 639.051 157.313 640.467 156.367C641.883 155.421 643.548 154.916 645.251 154.916C646.382 154.916 647.502 155.139 648.546 155.571C649.591 156.004 650.54 156.638 651.34 157.438C652.139 158.237 652.774 159.186 653.206 160.231C653.639 161.276 653.862 162.395 653.862 163.526Z" fill="#02060C"/>
<path d="M645.494 189.185C639.423 227.307 619.933 262.008 590.538 287.032C561.142 312.057 523.774 325.76 485.168 325.672C446.562 325.584 409.257 311.711 379.976 286.552C350.695 261.394 331.364 226.605 325.467 188.456" stroke="#D8D8D8" stroke-width="3" stroke-miterlimit="10" stroke-linecap="round" stroke-dasharray="10 10"/>
<path d="M333.154 163.526C333.154 165.23 332.648 166.895 331.701 168.312C330.754 169.728 329.407 170.832 327.833 171.483C326.258 172.133 324.525 172.303 322.854 171.968C321.183 171.634 319.649 170.812 318.446 169.605C317.243 168.399 316.425 166.862 316.095 165.191C315.766 163.519 315.94 161.787 316.595 160.214C317.251 158.641 318.358 157.298 319.777 156.355C321.196 155.412 322.863 154.911 324.568 154.916C325.697 154.916 326.816 155.139 327.859 155.572C328.902 156.005 329.85 156.639 330.648 157.439C331.445 158.239 332.077 159.188 332.507 160.233C332.937 161.277 333.157 162.396 333.154 163.526Z" fill="#02060C"/>
<path d="M145.228 325.044C115.291 321.561 86.919 309.793 63.3058 291.065C39.6926 272.336 21.7748 247.39 11.5684 219.034C1.36192 190.678 -0.728136 160.036 5.53336 130.557C11.7949 101.077 26.1594 73.9301 47.0109 52.1694C67.8623 30.4086 94.3733 14.8978 123.561 7.38227C152.748 -0.133287 183.454 0.644579 212.224 9.62835C240.993 18.6121 266.684 35.4453 286.407 58.2339C306.13 81.0226 319.101 108.862 323.862 138.621" stroke="#D8D8D8" stroke-width="3" stroke-miterlimit="10" stroke-linecap="round" stroke-dasharray="10 10"/>
<path d="M174.417 324.777C174.417 327.11 173.725 329.39 172.429 331.33C171.133 333.27 169.29 334.782 167.135 335.675C164.979 336.568 162.607 336.801 160.319 336.346C158.03 335.891 155.928 334.767 154.279 333.118C152.629 331.468 151.505 329.366 151.05 327.078C150.595 324.79 150.828 322.418 151.721 320.263C152.614 318.107 154.126 316.265 156.066 314.969C158.006 313.673 160.287 312.981 162.62 312.981C165.749 312.981 168.75 314.224 170.962 316.436C173.174 318.648 174.417 321.648 174.417 324.777Z" fill="#02060C"/>
</svg>
