<svg width="160" height="40" viewBox="0 0 160 40" fill="none" xmlns="http://www.w3.org/2000/svg">
<g clip-path="url(#clip0_23842_12907)">
<path d="M152.291 15.8832C152.291 15.6431 152.078 15.6088 151.998 15.3687H152.397C152.575 15.4695 152.734 15.6158 152.867 15.7985C152.999 15.9813 153.102 16.1969 153.168 16.4321L153.567 16.0205C153.567 16.4321 153.567 16.7409 153.726 17.0839H154.869L155.507 16.4321C155.563 16.5628 155.625 16.6888 155.693 16.8095C155.837 17.0662 155.997 17.3071 156.172 17.5299L156.491 16.8095H156.836L157.076 17.4613H157.714L158.99 18.6963V19.1423C158.512 19.1943 158.032 19.1943 157.554 19.1423L157.129 18.7649L156.969 19.7597C156.73 19.9656 156.438 19.7597 156.198 19.7597L155.826 20.0685L155.428 19.7254L155.268 20.7546C154.71 20.5831 154.577 19.8627 153.992 19.7597C153.833 19.451 153.833 19.451 153.434 19.4853V21.2006L153.779 21.5779C153.779 21.8524 153.779 22.0925 153.407 22.0925C153.035 22.0925 152.663 21.5436 152.317 20.7546H151.866V20.3429L151.387 19.8627C150.962 20.0685 150.882 20.5488 150.669 20.8918C150.457 21.2349 149.952 21.2692 149.633 21.5436L149.393 21.2692C149.074 21.2692 149.128 21.6465 149.207 21.7838C149.287 21.921 149.633 22.1611 149.473 22.5385C149.314 22.9158 148.729 22.5385 148.357 22.5385L147.984 22.8815C147.639 22.8815 147.533 22.6414 147.293 22.5728L146.868 22.9501L146.203 22.71L145.778 23.0874C145.764 23.1779 145.764 23.2713 145.778 23.3618C146.306 23.7637 146.896 24.0098 147.506 24.0822C147.745 24.4596 147.506 24.8712 147.506 25.3172L148.171 25.626V26.0033C147.692 26.6551 146.868 26.7237 146.31 27.2383H144.316L144.103 27.4441H141.764L141.472 27.7872C140.967 27.7872 140.382 27.7872 139.85 28.0273C140.35 28.1624 140.866 28.1624 141.365 28.0273H145.778L146.097 28.3704H152.131L152.503 28.7134H155.162L155.454 29.0222H156.464L156.783 29.3652H157.581L157.74 29.9827L158.378 30.5316C158.378 31.1834 157.767 31.4236 157.474 31.8009H156.836L156.491 32.1097H155.507L155.082 31.7666V32.3498C154.763 32.6585 154.364 32.3498 153.966 32.3498L153.593 32.0067L153.141 32.933L154.098 33.9278L153.009 35.0942C152.716 35.0942 152.371 35.0942 151.972 35.0942L151.52 36.0205H150.217L149.872 36.3978H146.762L146.469 36.7409H143.12L142.748 37.0839H138.069L137.724 37.427L137.298 37.0496L136.687 37.3927L136.395 37.1525L136.049 37.427L135.703 37.1182L135.464 37.3584H128.659L128.393 37.5985H118.903L118.584 37.9416H113.507C113.48 38.0657 113.435 38.182 113.374 38.2846H110.716C111.601 38.5491 112.526 38.4654 113.374 38.0445H113.879L114.225 38.3875C114.597 38.3875 114.703 38.1474 115.022 38.0102L115.66 38.3532H119.275L119.594 38.0102H128.34L128.632 37.7014C129.009 37.5945 129.399 37.5945 129.775 37.7014V38.1474H124.459L124.087 38.4904L123.741 38.1474L123.449 38.4561L123.077 38.1817H122.04C121.88 38.1817 121.801 38.6277 121.402 38.4904L121.056 38.1474L120.711 38.4904H108.988L108.642 38.8335L108.323 38.5247L107.978 38.7992H106.596L106.303 38.5247L105.958 38.8335L105.612 38.4904L105.373 38.7306H105.107H93.7562L93.384 39.0736L93.0385 39.5882C92.6663 39.5882 92.56 39.897 92.1878 39.9313L91.7093 39.6225L91.4169 39.897H55.4242L55.1318 39.5882L54.7863 39.9313H53.7761L53.4306 39.5882H52.766L52.4204 39.897H50.0812L49.7888 39.6225L49.2571 39.9656L48.7255 39.6225L48.4065 39.9313H47.8482L47.5027 39.5882L47.0773 39.9656L46.4925 39.6568L45.9875 39.9656L45.4824 39.6225L44.9773 39.9999L44.4723 39.5882L44.0735 39.9656L43.3292 39.5882H39.3153V39.2109H40.1393L40.4849 38.8678L40.7507 39.1422C43.2826 39.3395 45.8214 39.3395 48.3533 39.1422H48.0609H42.0267L41.7077 38.7992H38.3317L37.9861 38.4218H33.6266L33.281 37.7357H28.2304L27.938 37.427H25.9443L25.5721 37.0839H24.243L23.924 36.7409H21.5582L21.2657 36.4321C20.7341 36.4321 20.1227 36.4321 19.5379 36.4321L19.2455 36.1234H16.8531L16.5341 35.7803L16.1885 36.0891L15.9492 35.7117H14.1416L13.7163 35.1628V34.9913H15.9492C15.9492 34.6826 15.6037 34.8198 15.4442 34.7169L14.8594 33.9621L14.4872 34.3052H12.8391L12.4935 33.9621H11.4834L11.1112 33.6191H10.4733L10.1011 33.2074H9.11755L8.66565 32.3155L8.95805 31.9724C8.71881 31.698 8.4264 31.9724 8.134 31.8009L7.44285 32.5213H6.77829C6.37955 32.144 6.77829 31.9038 6.96437 31.5951C6.56365 31.4584 6.14229 31.4584 5.74157 31.5951L5.31625 31.8352V31.252L5.90107 30.8747L5.66182 30.5316C5.90107 30.2572 6.19347 30.5316 6.40613 30.5316L6.83145 30.8747L6.96437 30.3944C6.57055 30.2371 6.21393 29.9539 5.92765 29.5711C6.12735 29.5274 6.32324 29.4585 6.51246 29.3652C6.69854 29.3652 6.83145 29.0222 7.09728 29.0908C7.3631 29.1594 7.09728 29.7426 7.33652 30.0513C7.57576 30.3601 7.73526 30.0513 7.94792 30.0513V30.8747H8.34666C8.77198 30.8747 8.85172 30.2229 9.27704 30.1543C9.42239 30.1313 9.56123 30.0631 9.68163 29.9555C9.80202 29.8479 9.90036 29.7042 9.96819 29.5368C9.96819 28.9536 9.30363 28.9193 9.30363 28.4047H9.83528C9.83528 28.4047 9.83528 28.0959 9.83528 27.9587C9.92622 27.7922 10.0238 27.6319 10.1277 27.4784L9.67578 26.9982L9.17071 27.5127V28.4047H8.85172V27.4441C8.85172 27.2726 9.30363 27.204 9.06438 26.6894L8.71881 26.3121C8.37324 26.3121 8.29349 26.758 7.81501 26.9296H7.49602L7.09728 27.3069C6.92442 27.1067 6.76441 26.8887 6.61879 26.6551C6.43272 26.3121 6.35297 25.9347 6.16689 25.626C5.95183 25.3284 5.71101 25.0636 5.44916 24.8369H4.38586L3.85422 24.0136H3.37573L3.18965 23.5333L3.93396 22.9501V22.1268L4.25295 21.7495L3.93396 21.4064C3.93396 21.0977 3.93396 20.7889 3.74789 20.5145L3.4289 21.2692L2.97699 20.3086L3.24282 19.9999L2.92383 19.6568V18.9364C3.01145 18.9123 3.10203 18.9123 3.18965 18.9364H7.12386L7.46943 18.5591H8.90489C8.90489 18.1474 8.50615 18.0102 8.32007 17.7357C8.134 17.4613 8.32007 17.5299 8.47957 17.5299H11.1378L11.51 16.7409L12.7859 17.427L14.1151 16.7409L14.4606 17.5299H14.8062C15.0986 17.2898 14.8062 16.981 14.9923 16.6723L15.4176 16.1577H16.1885H16.3214V14.3738L16.6404 13.9965L16.1619 13.4819L15.9492 13.722H15.1518C15.1518 13.722 14.9657 13.379 14.8594 13.379C14.753 13.379 14.3277 13.379 14.1151 13.379C14.4075 13.7563 14.7796 13.379 15.1518 13.5848C14.971 13.8865 14.8109 14.2079 14.6733 14.5453L14.1682 14.7512V15.5745C13.9556 15.8146 13.6366 15.5745 13.3973 15.5745L13.0252 15.1971H12.1214L11.9353 14.6826L12.972 13.7563V13.722C12.7593 13.4476 12.4669 13.722 12.2011 13.722C11.9798 13.7049 11.7579 13.7049 11.5366 13.722H10.6328C10.6328 14.2023 10.8986 13.9621 11.191 14.4081C11.191 14.4081 11.191 14.4081 11.191 14.6483C11.191 14.8884 11.3771 14.6483 11.4568 14.6483V15.8489L11.8555 16.2949H11.191V15.7117L10.6328 14.9227H10.1011V13.722L9.59603 13.1731H8.79856C8.39982 13.5162 8.79856 14.0308 8.55932 14.4424H8.29349V13.722L7.9745 13.276L8.74539 12.5556L8.39982 12.0067C8.39982 11.8009 8.26691 11.5951 8.18716 11.4236C8.10741 11.252 7.81501 11.4236 7.62893 11.698C7.44285 11.9724 7.3631 11.698 7.3631 11.698C7.3631 11.698 7.3631 11.9381 7.62893 11.9381C7.89475 11.9381 7.23019 12.3498 7.17703 12.6585L6.43272 11.9381H5.68841V11.3206C6.52092 11.3385 7.33122 10.9737 7.9745 10.2915L8.85172 10.7375C9.38337 10.3258 8.85172 9.63968 9.27704 9.29663L9.75553 9.7769C9.62262 10.017 9.25046 10.1543 9.51629 10.6002C10.0018 10.6767 10.4928 10.6767 10.9783 10.6002L11.2973 10.2915C11.2973 9.60538 10.8188 9.53677 10.7125 9.0908L11.0581 8.67913C11.7226 8.30177 12.148 9.19371 12.9454 8.67913L13.291 8.4733L13.8492 8.88496H14.7796L15.2049 8.54191C15.6568 8.54191 15.7898 9.1251 16.2417 8.81635V8.37038L15.9492 7.8558C15.4708 7.58136 15.0986 8.16455 14.6467 8.19886L14.2746 7.8558L13.929 8.19886C13.4505 8.19886 13.2113 7.54706 12.5201 7.95872L12.2809 8.13025L11.7492 7.78719L11.2176 8.16455L10.6328 7.61567L11.191 7.34123C11.191 7.03248 10.8454 7.1697 10.6859 7.06678L10.4467 6.86095L10.1543 7.1697L9.72895 6.86095H8.16058L9.6492 6.41498L8.98464 6.07193C9.1973 5.59165 9.72894 6.07193 9.99477 5.62596C9.45555 5.55783 8.91246 5.55783 8.37324 5.62596C7.8291 5.68105 7.28163 5.62313 6.75171 5.45443C7.29285 5.30407 7.847 5.24639 8.39982 5.28291L9.0378 4.80263C8.4264 4.35666 7.81501 4.80263 7.28336 4.45958L7.60235 4.04791L6.93778 3.43042V3.08737L7.9745 2.57279H8.82514L9.14413 2.19543H12.4669L12.8391 1.85238H19.8835L20.1759 1.50932C21.1594 1.50932 22.1961 1.50932 23.2594 1.50932L23.5518 1.16627H30.5962L30.9418 0.788911H43.0368L43.3824 0.411552H79.9865L80.2789 -0.000111416H91.0448L91.3638 0.308636L91.8954 -0.103027L92.4271 0.342942H124.618L124.937 0.754605H130.254L130.6 1.13196H132.62L132.939 1.47502H135.358L136.182 2.53848H137.67C138.069 2.95015 137.67 3.15598 137.511 3.43042V4.11653C137.086 4.45958 136.873 5.11138 136.208 5.04277C136.224 5.20322 136.278 5.35314 136.364 5.47048C136.451 5.58782 136.564 5.66637 136.687 5.69457C137.032 5.69457 137.139 5.69457 137.192 6.20915C137.245 6.72373 137.511 6.62081 137.644 6.75803C138.282 6.75803 138.069 6.31207 138.308 6.10623L138.681 6.41498H139.664C139.85 6.41498 139.903 6.00332 140.169 6.07193C140.435 6.14054 140.169 6.34637 140.169 6.34637C140.169 6.34637 140.408 6.34637 140.382 6.07193C140.355 5.79749 140.701 6.07193 140.701 5.79749C140.701 5.52304 140.701 5.35152 140.382 5.35152C140.063 5.35152 140.382 5.07707 140.382 5.07707C139.903 5.07707 139.584 4.42527 138.84 4.73402L138.468 5.14569L138.84 5.62596H138.335C137.91 5.28291 138.335 4.83694 138.149 4.45958L137.777 3.91069H138.601C139.239 3.3275 138.282 3.08737 138.468 2.6757C138.654 2.26404 138.84 2.40126 139.265 2.6757L139.797 2.33265L140.515 2.77862L141.02 2.40126C141.02 2.40126 141.179 2.6757 141.153 2.77862C141.095 2.95249 141.007 3.10743 140.897 3.23208C140.787 3.35673 140.656 3.44794 140.515 3.49903C140.515 3.25889 140.515 2.98445 140.196 3.22459C140.296 3.32813 140.402 3.41997 140.515 3.49903C140.355 3.9793 140.86 4.32236 140.967 4.80263C141.045 5.03309 141.143 5.25167 141.259 5.45443C141.432 5.50117 141.602 5.57013 141.764 5.66026C141.834 5.75766 141.922 5.83073 142.019 5.8727C142.117 5.91468 142.221 5.9242 142.322 5.9004L143.306 6.92956L143.731 6.86095C144.103 6.86095 144.476 6.68942 144.741 7.13539H145.752L146.203 6.86095L146.682 7.47845V8.13025L147.346 8.67913V9.63968L148.436 10.5659L148.25 11.1148L147.852 10.7718L147.506 11.0805L147.028 10.6002V10.2915L146.203 9.26232C146.017 9.26232 145.964 9.67399 145.698 9.60538C145.433 9.53676 145.379 9.1251 145.193 8.95357C145.007 8.78205 144.901 8.95357 144.795 8.95357C144.688 8.95357 144.795 9.84551 144.954 10.2229C144.715 10.463 144.422 10.2229 144.183 10.2229C143.944 10.2229 143.864 11.1834 143.146 11.4236L143.891 11.6637L144.13 12.3155C144.13 12.3155 144.316 12.3155 144.343 12.1097C144.356 11.8813 144.356 11.6519 144.343 11.4236C144.582 11.1491 144.901 11.4236 145.167 11.4236L145.512 11.7666H146.841L147.187 12.1097L147.559 11.8009C147.772 12.0411 147.931 12.3841 148.171 12.4184C148.41 12.4527 148.702 12.7958 148.995 12.8301H149.526L149.898 12.487H150.536L151.52 11.7666L151.786 12.0411H152.636L153.647 12.6242C153.328 12.933 152.902 13.2074 152.743 13.6191C152.598 13.9955 152.377 14.3152 152.105 14.5453C151.733 14.5453 151.6 14.5453 151.653 13.9965L151.148 13.5162H150.084L149.845 14.2023L149.447 13.722H148.436L147.984 14.2709L148.596 14.5796C148.596 14.7855 148.224 14.8541 148.303 15.1285C147.772 15.1285 147.453 15.5059 147.028 15.6088C147.028 15.8832 147.214 16.1577 147.346 16.4321C147.479 16.7066 147.533 16.4321 147.612 16.4321C147.692 16.4321 147.612 16.9124 147.931 16.6723L147.612 16.4321V16.0891L148.277 15.403H149.154L149.34 14.8198C149.482 14.7177 149.643 14.664 149.805 14.664C149.968 14.664 150.128 14.7177 150.271 14.8198L149.978 15.1971C149.978 15.403 150.403 15.5402 150.271 15.8832L149.952 16.2606V17.1525H149.659C149.659 16.9467 149.659 16.6723 149.34 16.9124L149.659 17.1525C149.525 17.2917 149.416 17.4674 149.34 17.6671L150.51 18.9021C150.749 18.4905 150.51 18.0102 150.722 17.5985C150.838 17.4321 150.92 17.2319 150.962 17.0153C150.962 17.0153 150.962 16.7066 150.643 16.7409C150.324 16.7752 150.643 16.0548 150.643 15.7117L151.015 16.0205L151.52 15.6088L151.812 16.2606C151.998 16.1767 152.169 16.0487 152.317 15.8832C152.317 16.1234 152.317 16.3978 152.663 16.1577L152.291 15.8832ZM18.129 14.1337C17.8632 14.1337 17.5974 14.1337 17.8366 14.511C18.0758 14.8884 17.8366 14.3052 17.8366 14.2366C17.8366 14.168 18.3417 14.2366 18.129 13.8592C17.9164 13.4819 18.0758 14.0651 18.129 14.1337ZM143.545 22.0239C143.545 21.7495 143.545 21.475 143.2 21.7152C142.854 21.9553 143.386 21.7152 143.465 21.7152C143.545 21.7152 143.465 22.264 143.811 22.0239C143.77 21.9968 143.724 21.9827 143.678 21.9827C143.632 21.9827 143.586 21.9968 143.545 22.0239ZM15.9492 28.3018C15.7366 28.3018 15.4442 28.1302 15.3113 28.5076C15.7632 28.5076 15.7632 28.5076 15.9227 28.2675L16.2151 27.993C16.1133 28.0753 16.0233 28.1798 15.9492 28.3018ZM145.858 21.4407C145.858 21.7152 145.858 21.9896 146.203 21.7495L145.884 21.5436V20.5831L144.927 20.1028V20.9947L145.379 21.475C145.553 21.5438 145.738 21.5438 145.911 21.475L145.858 21.4407ZM143.2 9.22802C142.641 9.22802 143.014 8.61052 142.641 8.50761C142.269 8.40469 142.11 8.50761 141.87 8.50761V8.85066C142.11 9.36524 142.668 9.43385 143.146 9.7769C143.157 9.5484 143.157 9.31929 143.146 9.0908C143.492 8.85066 143.492 8.85066 143.333 8.40469C143.093 8.71344 143.306 9.02219 143.279 9.26232L143.2 9.22802ZM139.611 22.9501C139.292 22.9501 139 23.3618 138.734 23.3275C138.468 23.2932 138.202 23.5676 137.91 23.6362L137.67 23.3961H133.976L133.497 24.0136L133.657 24.4596H134.029L134.374 24.1165H139.398C139.558 23.9107 139.85 23.7735 139.903 23.3961L139.611 22.9501ZM142.269 22.6071C141.87 23.2589 141.286 22.8472 140.86 23.1217L140.036 23.5676V24.0479L140.887 23.6362L141.419 24.0136H142.402L142.748 23.7049L143.067 23.9793L143.545 23.6362L143.971 24.0136C144.131 23.8903 144.3 23.7869 144.476 23.7049C144.688 23.6884 144.901 23.6884 145.114 23.7049L144.662 23.1903H143.997L143.652 22.8815L143.279 23.1903C143.067 22.9844 142.695 23.1217 142.429 22.6071H142.269ZM139.292 11.3206L139.983 11.0119C140.329 11.0119 140.515 11.252 140.834 11.3206V10.8404C140.657 10.6701 140.489 10.4869 140.329 10.2915C140.218 10.1082 140.137 9.89828 140.089 9.67399H139.319L139.133 9.0908L138.548 9.46815V10.2915C138.92 10.5316 139.265 10.7718 139.292 11.3206ZM13.8226 25.0428C14.0885 25.0428 14.3809 25.0428 14.6999 24.8369C14.5404 24.6311 14.8594 24.2537 14.4872 23.9793H13.5037L13.291 24.391L12.7859 24.0136H12.1214C12.4935 24.3224 12.6796 24.8712 13.2378 24.9398L13.61 24.5625L13.8226 25.0428ZM137.724 9.94843C137.347 9.84667 136.958 9.84667 136.581 9.94843C136.694 10.091 136.793 10.2525 136.873 10.4287C136.873 10.7031 136.873 11.0119 137.059 11.2177C137.428 11.3031 137.806 11.3031 138.176 11.2177V10.463L137.724 9.94843ZM17.0923 15.7117C17.0923 16.192 17.5708 15.7117 17.6239 16.0548L17.81 16.6723C18.129 16.6723 18.4214 16.6723 18.7138 16.4664C19.0062 16.2606 18.7138 15.9862 18.7138 15.7117H17.3847H17.0923ZM6.93778 22.8129C6.93778 22.6414 7.0707 22.3326 7.0707 22.3326L5.87448 23.156C5.87448 23.5333 5.87448 23.8421 6.11373 24.0479C6.35297 24.2537 6.67196 24.0479 6.9112 24.0479C7.15044 24.0479 6.9112 23.5333 6.61879 23.3275L6.93778 22.8129ZM16.8531 30.8747C16.8531 31.0805 16.4543 31.1834 16.4012 31.5265C16.348 31.8695 16.6936 31.9724 17.0391 31.9381C17.7834 31.3549 17.8632 31.2177 17.5176 30.909L16.8531 30.8747ZM11.1378 24.0136H10.4201C10.4201 24.0136 10.2606 24.288 10.1277 24.3567C9.99477 24.4253 9.70236 24.3567 9.67578 24.734H11.4568C11.4568 24.734 11.4568 24.734 11.6163 24.5282L11.1378 24.0136ZM20.548 15.6088C20.2822 15.6088 19.9898 15.6088 19.7505 15.6088C19.5113 15.6088 20.0695 15.8146 20.229 15.8489L21.2657 16.9467C21.2657 16.4664 21.2657 16.4664 20.548 15.6088ZM8.5859 24.2194L8.74539 24.9398L9.30363 24.2194C9.30363 24.2194 7.9745 23.3275 7.9745 23.3618H7.70868C7.78842 24.0136 8.32007 24.0136 8.5859 24.2194ZM144.343 14.168C145.246 14.168 145.246 14.168 145.619 13.8935H145.114C144.744 13.8074 144.366 13.8074 143.997 13.8935C143.997 14.2366 143.811 14.5453 143.997 14.8884L144.343 14.168ZM147.612 14.3738C147.426 14.2023 147.32 13.9278 146.948 13.8592V15.0256C146.948 15.0256 146.948 15.0256 147.16 15.0256C147.373 15.0256 147.612 14.8884 147.612 14.3738ZM15.6834 16.8438L16.1353 17.3241C16.4277 17.3241 16.7733 17.3241 17.0391 17.3241C16.8402 17.2759 16.6446 17.2071 16.4543 17.1182C16.2948 17.1182 16.1885 16.7752 15.9227 16.8438H15.6834ZM14.3011 30.5659C14.1416 30.3601 14.0353 30.12 13.7695 30.0856L13.291 30.5659L13.7429 31.1148L14.3011 30.5659ZM141.897 10.6688L142.03 11.3549H142.641V10.8061L141.897 10.6688ZM110.45 38.662C109.653 38.662 109.653 38.662 109.413 38.662C109.573 38.7702 109.751 38.8267 109.932 38.8267C110.112 38.8267 110.29 38.7702 110.45 38.662ZM12.0948 28.5419C11.9087 28.8507 11.6429 28.9536 11.5897 29.228C11.6774 29.3293 11.791 29.3853 11.9087 29.3853C12.0264 29.3853 12.14 29.3293 12.2277 29.228L12.0948 28.5419ZM17.4113 17.427C18.1024 17.7357 18.1024 17.7014 18.3417 17.427H17.8366H17.4113ZM14.9923 9.43385C15.1456 9.56659 15.326 9.63746 15.5106 9.63746C15.6953 9.63746 15.8757 9.56659 16.029 9.43385C15.8803 9.28641 15.6981 9.20648 15.5106 9.20648C15.3232 9.20648 15.1409 9.28641 14.9923 9.43385ZM139.77 7.78719C139.505 8.09594 139.505 8.26747 139.77 8.54191H140.143L139.77 7.78719ZM21.9835 31.4922H21.7708C21.7708 31.4922 21.7708 31.8009 21.7708 31.9381H21.9835C22.0044 31.7907 22.0044 31.6396 21.9835 31.4922ZM20.3619 31.4922C20.6543 31.7323 20.867 31.8352 20.9999 31.4922C21.1328 31.1491 20.6278 31.3892 20.3619 31.6294V31.4922ZM11.2707 29.9827V29.7426H10.8188C10.9517 29.7426 10.8188 29.9827 10.8188 29.9827H11.2707ZM10.3138 28.8163C10.3561 28.8756 10.4075 28.9229 10.4646 28.9552C10.5218 28.9876 10.5836 29.0043 10.646 29.0043C10.7085 29.0043 10.7702 28.9876 10.8274 28.9552C10.8846 28.9229 10.936 28.8756 10.9783 28.8163C10.936 28.7571 10.8846 28.7098 10.8274 28.6775C10.7702 28.6451 10.7085 28.6284 10.646 28.6284C10.5836 28.6284 10.5218 28.6451 10.4646 28.6775C10.4075 28.7098 10.3561 28.7571 10.3138 28.8163ZM9.25046 23.2932V23.0531H8.79856C8.93147 23.0531 8.79856 23.2589 8.79856 23.2589C8.94816 23.2869 9.09934 23.2984 9.25046 23.2932ZM139.717 3.43042C139.505 3.77347 139.425 3.9793 139.717 4.11653C140.01 4.25375 139.957 3.87639 139.717 3.43042ZM135.039 10.6688C135.287 10.4401 135.287 10.2 135.039 9.94843C134.808 10.1771 134.808 10.4173 135.039 10.6688ZM18.0758 18.2503C18.036 18.186 17.9854 18.134 17.9279 18.0983C17.8704 18.0626 17.8074 18.0441 17.7436 18.0441C17.6797 18.0441 17.6167 18.0626 17.5592 18.0983C17.5017 18.134 17.4511 18.186 17.4113 18.2503C17.4972 18.3424 17.6053 18.3928 17.717 18.3928C17.8286 18.3928 17.9368 18.3424 18.0227 18.2503H18.0758ZM9.96819 18.6963V18.4905H9.51629V18.7306L9.96819 18.6963ZM23.0202 31.9381H22.8873C22.8923 32.018 22.8923 32.0984 22.8873 32.1783L23.0202 31.9381ZM81.5282 30.8747V31.1148C81.3953 31.1148 81.5282 31.1148 81.5282 30.909V30.8747ZM14.7265 28.4733V28.7134V28.5076V28.4733ZM116.777 26.3807V26.5865C116.782 26.5066 116.782 26.4263 116.777 26.3464V26.3807ZM123.236 25.4887H123.449H123.21H123.236ZM130.706 24.0136H130.493H130.732H130.706ZM148.011 21.6122V21.8524C148.011 21.8524 148.011 21.8524 148.011 21.6122ZM138.043 21.6122C138.065 21.5348 138.065 21.4495 138.043 21.3721C138.039 21.4406 138.039 21.5094 138.043 21.5779V21.6122ZM142.801 21.2349C142.731 21.2154 142.658 21.2154 142.588 21.2349H142.801ZM147.559 19.9999C147.554 20.0798 147.554 20.1601 147.559 20.24V19.9999ZM148.862 19.2452C148.862 19.2452 148.862 19.2452 148.862 19.4853V19.2452ZM18.6075 18.5248V18.7649C18.6126 18.685 18.6126 18.6047 18.6075 18.5248ZM19.5113 16.535V16.2949C19.5062 16.3748 19.5062 16.4551 19.5113 16.535ZM143.545 14.7512V14.5453C143.54 14.6253 143.54 14.7056 143.545 14.7855V14.7512ZM13.9556 14.3052C13.9606 14.3851 13.9606 14.4654 13.9556 14.5453V14.3052ZM135.57 11.252C135.576 11.1721 135.576 11.0918 135.57 11.0119V11.252ZM13.0252 10.5316C13.1045 10.4357 13.194 10.3548 13.291 10.2915L13.0252 10.5316ZM141.924 10.2915C141.924 10.2915 141.924 10.2915 142.136 10.2915H141.924ZM137.511 8.13025C137.516 8.21016 137.516 8.29047 137.511 8.37038V8.13025Z" fill="#E9004B"/>
<path d="M1.24938 29.0224V29.5712L0.74431 29.7771L0 28.7479L0.186077 28.4735V27.6501C0.345572 27.6501 0.558232 27.6501 0.63798 27.6501C0.717727 27.6501 1.32912 28.3706 1.72786 28.7479L2.39242 28.3363L2.84433 29.0224H3.37598L3.50889 29.5712L2.84433 29.8457L3.24306 30.5661L2.65825 30.8748L2.36584 30.0858L2.65825 29.8457C2.41708 29.7557 2.18507 29.6291 1.9671 29.4683C1.72786 29.4683 1.62153 29.0224 1.32912 29.0224C1.03672 29.0224 1.32912 28.5421 1.01013 28.7822L1.24938 29.0224Z" fill="#E9004B"/>
<path d="M134.348 38.1475L134.694 37.8044L134.986 38.1132H137.086L137.325 37.8387L137.91 38.2161L138.442 37.8044H139.053C139.319 38.0446 139.292 38.2504 139.053 38.4905L138.708 38.1818L138.415 38.4905H132.062L131.557 38.9365L130.813 38.4562L130.308 38.8336C130.121 38.8336 130.148 38.4905 130.308 38.2847C130.467 38.0789 130.308 38.2847 130.44 38.2847L134.348 38.1475Z" fill="#E9004B"/>
<path d="M142.588 37.7358V37.427H146.628L146.921 37.084C147.336 37.0147 147.755 37.0147 148.17 37.084C148.17 37.084 148.17 37.3241 148.17 37.3584C147.876 37.5094 147.574 37.6355 147.266 37.7358H145.884L145.326 38.1474L144.555 37.7358L144.077 38.1131L143.758 37.7701L142.588 37.7358Z" fill="#E9004B"/>
<path d="M3.85449 30.2231L4.70513 29.5713L4.25323 28.748V28.0962L5.10387 27.2385C5.28995 27.4787 5.6621 27.6159 5.58235 28.0962L4.97096 28.4392C4.7583 28.8509 5.18362 29.0224 5.31653 29.2282C4.89121 30.0173 4.62538 30.2917 4.22665 30.3946C3.82791 30.4975 4.06715 30.326 3.85449 30.2231Z" fill="#E9004B"/>
<path d="M36.8167 38.868H36.3383L35.9661 39.211L35.6737 38.9023H32.3243C32.0851 38.6622 32.0585 38.4563 32.3243 38.1819H33.0952L33.3876 38.5249H36.6838L36.8167 38.868Z" fill="#E9004B"/>
<path d="M2.65798 22.6415H1.38202L0.876953 22.0583L1.48835 21.6467C1.48835 21.2693 1.48835 20.9949 1.80734 20.9263L2.02 21.5438H2.79089C2.9238 21.5438 2.9238 21.5438 2.57823 22.0583L2.65798 22.6415Z" fill="#E9004B"/>
<path d="M29.7726 38.2503V38.9364L29.2409 38.5248L28.8954 38.8678L28.603 38.5591C28.0447 38.3875 27.3802 38.5591 26.7422 38.5591C27.2738 38.0788 27.5397 38.0788 29.7726 38.2503Z" fill="#E9004B"/>
<path d="M39.1826 39.211H37.2155C37.056 39.211 36.9231 39.211 36.9497 38.868H37.2155L37.5611 38.5249L37.9332 38.9023H38.9434L39.1826 39.211Z" fill="#E9004B"/>
<path d="M155.162 21.338H155.88L156.172 20.5833H156.518C156.863 20.892 156.332 20.9606 156.332 21.1664C156.344 21.372 156.344 21.5784 156.332 21.7839H156.172C156.013 21.6467 155.667 21.6124 155.162 21.338Z" fill="#E9004B"/>
<path d="M139.505 38.0103L139.744 37.8044H141.419C141.1 38.2161 141.1 38.2161 139.505 38.0103Z" fill="#E9004B"/>
<path d="M151.653 36.741C152.012 36.3532 152.462 36.1352 152.929 36.1235C152.929 36.4323 152.637 36.5352 152.477 36.741H151.653Z" fill="#E9004B"/>
<path d="M148.995 26.5865V25.9004H149.527V26.5522L148.995 26.5865Z" fill="#E9004B"/>
<path d="M12.334 35.4031V34.717H12.8922V35.4031H12.334Z" fill="#E9004B"/>
<path d="M151.652 36.8097C151.227 37.2557 150.775 37.0498 150.323 36.8097C150.722 36.6039 151.227 36.8783 151.652 36.8097Z" fill="#E9004B"/>
<path d="M154.179 21.8868C153.833 21.8868 154.019 21.5781 153.939 21.4065C153.86 21.235 153.7 21.2007 153.461 20.9949H154.152C154.222 21.1245 154.262 21.2776 154.267 21.4358C154.272 21.594 154.241 21.7506 154.179 21.8868Z" fill="#E9004B"/>
<path d="M4.65197 31.8697H3.85449C4.12032 31.6639 4.22665 31.3894 4.54564 31.3208L4.65197 31.8697Z" fill="#E9004B"/>
<path d="M7.97461 30.0516V29.4341C8.37335 29.4341 8.34676 29.7771 8.61259 29.8114C8.47968 30.2231 8.16069 29.983 7.97461 30.0516Z" fill="#E9004B"/>
<path d="M7.97501 27.4443V28.1991C7.82807 28.0861 7.69389 27.9476 7.57627 27.7874C7.51758 27.7224 7.47197 27.64 7.44336 27.5473H7.70918L7.97501 27.4443Z" fill="#E9004B"/>
<path d="M158.033 19.8284V20.3086C157.847 20.6517 157.634 20.3086 157.315 20.5145C157.555 20.1371 157.714 19.8627 158.033 19.8284Z" fill="#E9004B"/>
<path d="M141.924 3.43042H142.376C142.668 3.60195 142.668 3.84208 142.376 4.08222C142.083 4.32236 141.95 3.60195 141.924 3.43042Z" fill="#E9004B"/>
<path d="M31.4734 38.6965C31.2076 38.9023 31.0215 38.9366 30.8355 38.6965C30.6494 38.4563 31.181 38.4563 31.4734 38.6965Z" fill="#E9004B"/>
<path d="M142.615 37.7358C142.376 38.1475 142.376 38.1475 141.95 37.976C142.057 37.7358 142.376 37.9074 142.615 37.7358Z" fill="#E9004B"/>
<path d="M148.304 37.1184C148.49 36.741 148.49 36.7411 148.942 36.9126C148.862 37.2556 148.516 37.0498 148.304 37.1184Z" fill="#E9004B"/>
<path d="M10.6328 34.3054C10.7832 34.2888 10.9344 34.2888 11.0847 34.3054C11.0847 34.3054 11.0847 34.3054 11.0847 34.5112H10.6328V34.3054Z" fill="#E9004B"/>
<path d="M6.61964 28.439C6.52196 28.526 6.40606 28.5727 6.28736 28.5727C6.16865 28.5727 6.05276 28.526 5.95508 28.439C6.11457 28.1303 6.32723 28.2332 6.61964 28.439Z" fill="#E9004B"/>
<path d="M149.793 25.1115C149.544 24.86 149.544 24.6198 149.793 24.3911C150.041 24.6427 150.041 24.8828 149.793 25.1115Z" fill="#E9004B"/>
<path d="M150.802 24.4253C150.589 24.1508 150.589 23.945 150.802 23.7392C151.015 23.5333 151.015 24.0136 150.802 24.4253Z" fill="#E9004B"/>
<path d="M141.924 4.4941C141.964 4.42975 142.014 4.37779 142.072 4.34209C142.129 4.30638 142.192 4.28784 142.256 4.28784C142.32 4.28784 142.383 4.30638 142.44 4.34209C142.498 4.37779 142.549 4.42975 142.588 4.4941C142.546 4.55335 142.495 4.60064 142.438 4.63299C142.38 4.66534 142.319 4.68204 142.256 4.68204C142.194 4.68204 142.132 4.66534 142.075 4.63299C142.018 4.60064 141.966 4.55335 141.924 4.4941Z" fill="#E9004B"/>
<path d="M140.223 6.07197C140.195 5.91385 140.195 5.74983 140.223 5.5917C140.223 5.5917 140.435 5.5917 140.542 5.35156V6.07197H140.223Z" fill="#E9004B"/>
<path d="M145.619 9.60546V10.2916C145.3 10.2916 145.247 10.2916 145.274 9.8799C145.3 9.46824 145.406 9.57115 145.619 9.60546Z" fill="#E9004B"/>
<path d="M145.619 10.2915C145.938 10.4973 145.938 10.4973 145.805 10.9776C145.433 10.8404 145.672 10.5316 145.619 10.2915Z" fill="#E9004B"/>
<path d="M154.178 13.1389C153.93 12.8873 153.93 12.6472 154.178 12.4185C154.426 12.6472 154.426 12.8873 154.178 13.1389Z" fill="#E9004B"/>
<path d="M153.674 13.7221C153.716 13.6629 153.768 13.6156 153.825 13.5832C153.882 13.5509 153.944 13.5342 154.006 13.5342C154.069 13.5342 154.13 13.5509 154.188 13.5832C154.245 13.6156 154.296 13.6629 154.338 13.7221C154.296 13.7814 154.245 13.8287 154.188 13.861C154.13 13.8933 154.069 13.91 154.006 13.91C153.944 13.91 153.882 13.8933 153.825 13.861C153.768 13.8287 153.716 13.7814 153.674 13.7221Z" fill="#E9004B"/>
<path d="M150.643 14.717C150.682 14.6526 150.733 14.6007 150.791 14.565C150.848 14.5293 150.911 14.5107 150.975 14.5107C151.039 14.5107 151.102 14.5293 151.159 14.565C151.217 14.6007 151.267 14.6526 151.307 14.717C151.218 14.8281 151.099 14.8902 150.975 14.8902C150.851 14.8902 150.732 14.8281 150.643 14.717Z" fill="#E9004B"/>
<path d="M153.992 19.8284C153.992 20.0342 154.152 20.3773 153.806 20.5145C153.647 20.0342 153.647 20.0342 153.992 19.8284Z" fill="#E9004B"/>
<path d="M26.1309 38.2847H26.2645C26.2645 38.2847 26.2645 38.4562 26.2645 38.5248L26.1309 38.2847Z" fill="#E9004B"/>
<path d="M149.686 37.3242V37.1184C149.705 37.1969 149.705 37.28 149.686 37.3585V37.3242Z" fill="#E9004B"/>
<path d="M157.448 32.8301L157.155 33.2074C156.836 32.8987 157.182 32.8987 157.448 32.8301Z" fill="#E9004B"/>
<path d="M157.262 32.8987L157.554 32.5557C157.793 32.8644 157.528 32.8301 157.262 32.8987Z" fill="#E9004B"/>
<path d="M4.8916 29.9485L5.31692 30.2572C4.94477 30.4974 4.97135 30.2229 4.8916 29.9485Z" fill="#E9004B"/>
<path d="M151.945 24.3225L152.291 24.6313C151.998 24.8714 152.025 24.597 151.945 24.3225Z" fill="#E9004B"/>
<path d="M151.653 24.0137C151.893 24.0137 151.999 24.0137 151.972 24.3567C151.946 24.6998 151.653 24.2881 151.653 24.0137Z" fill="#E9004B"/>
<path d="M151.68 24.0138H151.334C151.52 23.6021 151.52 24.0138 151.68 24.0138Z" fill="#E9004B"/>
<path d="M2.79112 23.7393L2.92403 24.0137H2.6582L2.79112 23.7393Z" fill="#E9004B"/>
<path d="M2.6582 22.5386L3.00378 22.8473C2.6582 23.0875 2.6582 22.813 2.6582 22.5386Z" fill="#E9004B"/>
<path d="M151.148 20.892C151.154 20.8121 151.154 20.7318 151.148 20.6519C151.142 20.7318 151.142 20.8121 151.148 20.892Z" fill="#E9004B"/>
<path d="M159.681 19.3826L160 19.6913C159.707 19.9315 159.734 19.657 159.681 19.3826Z" fill="#E9004B"/>
<path d="M157.927 19.8628L158.219 19.5198C158.458 19.8285 158.193 19.7942 157.927 19.8628Z" fill="#E9004B"/>
<path d="M159.734 19.554L159.495 19.2795C159.708 19.0394 159.681 19.2795 159.734 19.554Z" fill="#E9004B"/>
<path d="M149.978 17.1526H150.297C150.297 17.1526 150.297 17.3927 150.297 17.427C150.297 17.4613 149.951 17.1526 149.978 17.1526Z" fill="#E9004B"/>
<path d="M150.297 17.1527C150.297 16.9126 150.297 16.7754 150.642 16.7754C150.988 16.7754 150.536 17.1527 150.297 17.1527Z" fill="#E9004B"/>
<path d="M154.178 16.0549C154.183 16.1348 154.183 16.2152 154.178 16.2951V16.0549Z" fill="#E9004B"/>
<path d="M8.37335 14.5112L7.97461 14.8543C7.97461 14.5455 8.1341 14.5798 8.37335 14.5112Z" fill="#E9004B"/>
<path d="M11.5635 14.5798L11.8559 14.2024C12.0685 14.5111 11.8027 14.5111 11.5635 14.5798Z" fill="#E9004B"/>
<path d="M7.62988 11.698C7.78938 11.698 7.92229 11.698 7.89571 11.9381C7.86913 12.1783 7.70963 11.9381 7.62988 11.9381V11.698Z" fill="#E9004B"/>
<path d="M141.95 3.43056L141.604 3.0532C141.897 2.81307 141.87 3.08751 141.95 3.43056Z" fill="#E9004B"/>
</g>
<defs>
<clipPath id="clip0_23842_12907">
<rect width="160" height="40" fill="white"/>
</clipPath>
</defs>
</svg>
